<svg xmlns="http://www.w3.org/2000/svg" xmlns:xlink="http://www.w3.org/1999/xlink" viewBox="0 0 225.7 225.7"><style>.st7{fill:#fff}.st9{fill:#332323}</style><defs><path id="SVGID_1_" d="M0 0h225.7v225.7H0z"/></defs><clipPath id="SVGID_2_"><use xlink:href="#SVGID_1_" overflow="visible"/></clipPath><g clip-path="url(#SVGID_2_)"><linearGradient id="SVGID_3_" gradientUnits="userSpaceOnUse" x1="-3029.041" y1="995.297" x2="-2510.542" y2="622.147" gradientTransform="matrix(-1 0 0 1 -2738.51 -544)"><stop offset="0" stop-color="#293882"/><stop offset="1" stop-color="#171042"/></linearGradient><path d="M50.3 179.7c87-1.4 183.1 22.9 183.1 22.9 25.9 151.4 4.5 326 4.5 326-67.4 17.7-143.4-10.8-143.4-10.8C83.3 454.5 31 276.4 31 276.4c-42.5-5.3-77.6-17.5-106.4-33.8 22-25.5 32.4-58 36.9-77.2 30.8 9.6 62 14.7 88.8 14.3z" fill="url(#SVGID_3_)"/><linearGradient id="SVGID_4_" gradientUnits="userSpaceOnUse" x1="-2700.11" y1="687.692" x2="-2531.71" y2="687.692" gradientTransform="matrix(-1 0 0 1 -2738.51 -544)"><stop offset="0" stop-color="#f7b777"/><stop offset="1" stop-color="#f47960"/></linearGradient><path d="M-206.8 51.5c8.6-10.3 19.4-5.5 19.4-5.5 12.8 54.1 80 98 149 119.4-4.5 19.2-14.9 51.6-36.9 77.1-114.5-64.3-131.5-191-131.5-191z" fill="url(#SVGID_4_)"/><linearGradient id="SVGID_5_" gradientUnits="userSpaceOnUse" x1="-2891.248" y1="717.048" x2="-2820.7" y2="717.048" gradientTransform="matrix(-1 0 0 1 -2738.51 -544)"><stop offset="0" stop-color="#f7b777"/><stop offset="1" stop-color="#f47960"/></linearGradient><path d="M129.4 142l23.2 54.7c.4.9-.1 2-1.1 2.4-6.3 2.9-29.1 11.1-56.6-3.1-2.7-1.2-4.6-3.7-5.2-6.6L82.1 142h47.3z" fill="url(#SVGID_5_)"/><linearGradient id="SVGID_6_" gradientUnits="userSpaceOnUse" x1="-8660.581" y1="-2596.947" x2="-8692.051" y2="-2700.757" gradientTransform="scale(-1 1) rotate(-41.8 -803.478 -12483.408)"><stop offset="0" stop-color="#f7b777"/><stop offset="1" stop-color="#f47960"/></linearGradient><path d="M78.2 67.8S47.8 125 51.7 148.2s41.6 21.5 74.5 2.7l23-61.8-71-21.3z" fill="url(#SVGID_6_)"/><linearGradient id="SVGID_7_" gradientUnits="userSpaceOnUse" x1="-8686.42" y1="-2774.987" x2="-8660.101" y2="-2624.816" gradientTransform="scale(-1 1) rotate(-41.8 -803.478 -12483.408)"><stop offset="0" stop-color="#293882"/><stop offset="1" stop-color="#171042"/></linearGradient><path d="M124.8 120.5c-1.2-.5-1.7-1.9-1.2-3.1.1-.1.1-.2.2-.3 2.4-3.7 7-11.3 8.5-18 0 0 5.5-3.5-13.9-8.1S70 79.1 63.9 62.6c-5.9-16 9.7-56.5 34.5-24.3.8 1 2.3 1.2 3.3.4.2-.1.3-.3.4-.4 4.1-5.3 14.8-16.3 29.6-9.6 13.9 6.3 15.5 16.4 15.3 21.6 0 1.3 1 2.4 2.3 2.4h.5c7-1.3 23.9-2.5 31.8 14.8 6.5 14.3 2.3 22.3-1.6 26.3-.9.9-.9 2.4 0 3.3.3.3.6.5 1 .6 4.6 1.4 10.6 5.3 10 16.2-.8 15-17.6 13.7-22.3 13-.8-.1-1.6.2-2.1.7-4.1 4.5-22.5 23.7-42.4 26-1.3.1-2.5-.8-2.6-2.1 0-.4 0-.7.1-1l8.6-25.1c.4-1.2-.2-2.4-1.3-2.9l-4.2-2z" fill="url(#SVGID_7_)"/><linearGradient id="SVGID_8_" gradientUnits="userSpaceOnUse" x1="-8692.637" y1="-2597.463" x2="-8720.956" y2="-2690.873" gradientTransform="scale(-1 1) rotate(-41.8 -803.478 -12483.408)"><stop offset="0" stop-color="#f7b777"/><stop offset="1" stop-color="#f47960"/></linearGradient><path d="M121.3 124.1s21.6-14.9 23.2-2.3-19.5 18.1-29.9 13.5l6.7-11.2z" fill="url(#SVGID_8_)"/><path class="st7" d="M87.3 107.1l1.5-7.9L109 111zm-26.2 21.6l21.6 3.9c3 .5-7.8 14.9-17.9 9 0 0-5.7-2.1-3.7-12.9z"/><defs><path id="SVGID_9_" d="M87.3 107.1l1.5-7.9L109 111z"/></defs><clipPath id="SVGID_10_"><use xlink:href="#SVGID_9_" overflow="visible"/></clipPath><g clip-path="url(#SVGID_10_)"><circle class="st9" cx="89.3" cy="104.8" r="6.5"/></g><path class="st7" d="M56.8 101.5l1.5-7.8 11.3 10.1z"/><defs><path id="SVGID_11_" d="M56.8 101.5l1.5-7.8 11.3 10.1z"/></defs><clipPath id="SVGID_12_"><use xlink:href="#SVGID_11_" overflow="visible"/></clipPath><g clip-path="url(#SVGID_12_)"><circle class="st9" cx="59.2" cy="99.9" r="6"/></g><linearGradient id="SVGID_13_" gradientUnits="userSpaceOnUse" x1="163.501" y1="373.239" x2="179.507" y2="373.239" gradientTransform="rotate(10.263 1532.13 -308.877)"><stop offset=".62" stop-color="#f47b61"/><stop offset="1" stop-color="#f47960"/></linearGradient><path fill="url(#SVGID_13_)" d="M66.1 120.5l-1.7-4.4 6 1.1 8.8 6.7z"/></g></svg>