<svg xmlns="http://www.w3.org/2000/svg" xmlns:xlink="http://www.w3.org/1999/xlink" viewBox="0 0 225.7 225.7"><style>.st13{fill:#fff}.st15{fill:#332323}</style><defs><path id="SVGID_1_" d="M0 0h225.7v225.7H0z"/></defs><clipPath id="SVGID_2_"><use xlink:href="#SVGID_1_" overflow="visible"/></clipPath><g clip-path="url(#SVGID_2_)"><linearGradient id="SVGID_3_" gradientUnits="userSpaceOnUse" x1="-2914.891" y1="914.899" x2="-3018.411" y2="1309.989" gradientTransform="matrix(-1 0 0 1 -2956.15 -708)"><stop offset="0" stop-color="#ffe81d"/><stop offset=".21" stop-color="#eb8bb5"/><stop offset="1" stop-color="#fff200"/></linearGradient><path d="M58.4 183.6S-16 205-71.8 199.1s-70.5-13.9-70.5-13.9-9.7 8-5.4 18.6c80.1 41.3 188.1 30.7 188.1 30.7l18-50.9z" fill="url(#SVGID_3_)"/><linearGradient id="SVGID_4_" gradientUnits="userSpaceOnUse" x1="-3131.452" y1="858.335" x2="-3230.813" y2="1237.524" gradientTransform="matrix(-1 0 0 1 -2956.15 -708)"><stop offset="0" stop-color="#eb8bb5"/><stop offset=".41" stop-color="#f287b7"/><stop offset="1" stop-color="#79c9b0"/></linearGradient><path d="M264.7 216c-2.4-5.9-19.1-13.9-19.1-13.9s-31.3 51.2-54 46.4-27.2-59.6-50.1-66.9-18.3 45.4-18.3 45.4 27.6 63.1 66.7 59.6 74.8-70.6 74.8-70.6z" fill="url(#SVGID_4_)"/><linearGradient id="SVGID_5_" gradientUnits="userSpaceOnUse" x1="-3023.475" y1="887.718" x2="-3126.455" y2="1280.738" gradientTransform="matrix(-1 0 0 1 -2956.15 -708)"><stop offset="0" stop-color="#ffe81d"/><stop offset=".21" stop-color="#eb8bb5"/><stop offset="1" stop-color="#fff200"/></linearGradient><path d="M141.2 181.6s-77-17.1-96 13.7c-24.3 39.2-24 61.7-24 61.7s0 6 18.3 23.2c21.2 47.5 3.2 85.6 3.2 85.6 25 7.5 55.6 5.8 97.4-14.7 0 0-18.8-78.6-4.8-115 3.6-54.5 5.9-54.5 5.9-54.5z" fill="url(#SVGID_5_)"/><linearGradient id="SVGID_6_" gradientUnits="userSpaceOnUse" x1="-228.236" y1="1301.556" x2="-293.686" y2="1454.617" gradientTransform="rotate(-11.579 -6341.956 -1223.617)"><stop offset="0" stop-color="#570d09"/><stop offset="1" stop-color="#764432"/></linearGradient><path d="M142.6 120.8s7.6-53.7-36.7-45.2l-9 9.4s-21.9-24.4 2-43.1 57.2-14.2 75.9 19.5 25.5 57.3 10.2 78.4-27 3.2-27 3.2 7-18.2 1-26-13.4 4.6-13.4 4.6l-3-.8z" fill="url(#SVGID_6_)"/><linearGradient id="SVGID_7_" gradientUnits="userSpaceOnUse" x1="-244.996" y1="1338.975" x2="-310.436" y2="1492.035" gradientTransform="rotate(-11.579 -6341.956 -1223.617)"><stop offset="0" stop-color="#570d09"/><stop offset="1" stop-color="#764432"/></linearGradient><path d="M133.6 160.8s7.6-53.7-36.7-45.2L88 125s-21.9-24.4 2-43.1 57.2-14.2 75.9 19.5 25.5 57.3 10.2 78.4-27 3.2-27 3.2 7-18.2 1-26-13.4 4.6-13.4 4.6l-3.1-.8z" fill="url(#SVGID_7_)"/><linearGradient id="SVGID_8_" gradientUnits="userSpaceOnUse" x1="-249.102" y1="1378.957" x2="-314.542" y2="1532.017" gradientTransform="rotate(-11.579 -6341.956 -1223.617)"><stop offset="0" stop-color="#570d09"/><stop offset="1" stop-color="#764432"/></linearGradient><path d="M137.6 200.8s7.6-53.7-36.7-45.2L92 165s-21.9-24.4 2-43.1 57.2-14.2 75.9 19.5 25.5 57.3 10.2 78.4-27 3.2-27 3.2 7-18.2 1-26-13.4 4.6-13.4 4.6l-3.1-.8z" fill="url(#SVGID_8_)"/><linearGradient id="SVGID_9_" gradientUnits="userSpaceOnUse" x1="-270.525" y1="1388.856" x2="-335.965" y2="1541.916" gradientTransform="rotate(-11.579 -6341.956 -1223.617)"><stop offset="0" stop-color="#570d09"/><stop offset="1" stop-color="#764432"/></linearGradient><path d="M118.6 214.8s7.6-53.7-36.7-45.2L73 179s-21.9-24.4 2-43.1 57.2-14.2 75.9 19.5 25.5 57.3 10.2 78.4-27 3.2-27 3.2 7-18.2 1-26-13.4 4.6-13.4 4.6l-3.1-.8z" fill="url(#SVGID_9_)"/><linearGradient id="SVGID_10_" gradientUnits="userSpaceOnUse" x1="428.497" y1="186.287" x2="414.827" y2="98.607" gradientTransform="rotate(13.88 41.38 -1197.877)"><stop offset="0" stop-color="#f7b777"/><stop offset="1" stop-color="#f47960"/></linearGradient><path d="M71.2 132.9c.1 1.9 2.3 46.1 3.2 47.1 8.7 9 23.6 11.5 38.6 5.9l-6.3-51.3-35.5-1.7z" fill="url(#SVGID_10_)"/><linearGradient id="SVGID_11_" gradientUnits="userSpaceOnUse" x1="-345.528" y1="1345.206" x2="-228.698" y2="1424.566" gradientTransform="rotate(-11.579 -6341.956 -1223.617)"><stop offset="0" stop-color="#f7b777"/><stop offset="1" stop-color="#f47960"/></linearGradient><path d="M80.1 53.4s-21.5 14.8-30.6 52.3 6.1 50.8 21.6 49.9 37.9-5.9 57.1-32.8-19.9-87.5-48.1-69.4z" fill="url(#SVGID_11_)"/><linearGradient id="SVGID_12_" gradientUnits="userSpaceOnUse" x1="-258.937" y1="1281.996" x2="-324.387" y2="1435.056" gradientTransform="rotate(-11.579 -6341.956 -1223.617)"><stop offset="0" stop-color="#570d09"/><stop offset="1" stop-color="#764432"/></linearGradient><path d="M108.6 107.8s7.6-53.7-36.7-45.2l-9 9.4s-21.9-24.4 2-43.1 57.2-14.2 75.9 19.5 25.5 57.3 10.2 78.4-27 3.2-27 3.2 7-18.2 1-26-13.4 4.6-13.4 4.6l-3-.8z" fill="url(#SVGID_12_)"/><linearGradient id="SVGID_13_" gradientUnits="userSpaceOnUse" x1="-338.529" y1="1334.888" x2="-221.719" y2="1414.228" gradientTransform="rotate(-11.579 -6341.956 -1223.617)"><stop offset="0" stop-color="#f7b777"/><stop offset="1" stop-color="#f47960"/></linearGradient><path d="M114.6 112.3s3.7-27.6 17.8-19.8-4.9 25.8-12.5 31.9l-5.3-12.1z" fill="url(#SVGID_13_)"/><linearGradient id="SVGID_14_" gradientUnits="userSpaceOnUse" x1="99.549" y1="745.989" x2="88.669" y2="799.129" gradientTransform="matrix(.9999 .01152 -.01152 .9999 -.054 -690.581)"><stop offset="0" stop-color="#570d09"/><stop offset="1" stop-color="#764432"/></linearGradient><path d="M62.6 67.6c-5 4.9-7.7 12.4 8 20.2 0 0-1.9-13 8.1-12.9 0 0-6.1 9.9 2.8 20 0 0 10.1-13.7 22.5-2.7 4.6 4.1 7 1.5 8.2-3.5 3.3-14.2-7.7-27.8-22.3-28.1-4.4-.1-8.8.1-13.2.6-5.3.5-10.3 2.7-14.1 6.4z" fill="url(#SVGID_14_)"/><path class="st13" d="M74.7 102v-8l22 8zm-22 26h22c3 0-5 16-16 12 0 0-6-1-6-12z"/><defs><path id="SVGID_15_" d="M74.7 102v-8l22 8z"/></defs><clipPath id="SVGID_16_"><use xlink:href="#SVGID_15_" overflow="visible"/></clipPath><g clip-path="url(#SVGID_16_)"><circle class="st15" cx="76.2" cy="99.5" r="6.5"/></g><path class="st13" d="M43.7 102v-8l13 8z"/><defs><path id="SVGID_17_" d="M43.7 102v-8l13 8z"/></defs><clipPath id="SVGID_18_"><use xlink:href="#SVGID_17_" overflow="visible"/></clipPath><g clip-path="url(#SVGID_18_)"><circle class="st15" cx="45.7" cy="100" r="6"/></g><linearGradient id="SVGID_19_" gradientUnits="userSpaceOnUse" x1="53.7" y1="825.5" x2="69.7" y2="825.5" gradientTransform="translate(0 -708)"><stop offset=".62" stop-color="#f47b61"/><stop offset="1" stop-color="#f47960"/></linearGradient><path fill="url(#SVGID_19_)" d="M56.1 119l-2.4-4h6.1l9.9 5z"/></g></svg>