<svg xmlns="http://www.w3.org/2000/svg" xmlns:xlink="http://www.w3.org/1999/xlink" viewBox="0 0 225.7 225.7"><style>.st7{fill:#fff}</style><defs><path id="SVGID_1_" d="M0 0h225.7v225.7H0z"/></defs><clipPath id="SVGID_2_"><use xlink:href="#SVGID_1_" overflow="visible"/></clipPath><g clip-path="url(#SVGID_2_)"><linearGradient id="SVGID_3_" gradientUnits="userSpaceOnUse" x1="161.75" y1="-213.333" x2="680.25" y2="159.817" gradientTransform="rotate(180 223.515 114)"><stop offset="0" stop-color="#0090bb"/><stop offset="1" stop-color="#ec0084"/></linearGradient><path d="M45 169.8c87-1.4 183.1 22.9 183.1 22.9 26 151.4 4.5 326 4.5 326-67.4 17.7-143.4-10.8-143.4-10.8C78 444.6 25.7 266.5 25.7 266.5c-42.5-5.3-77.6-17.5-106.4-33.8 22-25.5 32.4-58 36.9-77.2 30.8 9.6 62 14.7 88.8 14.3z" fill="url(#SVGID_3_)"/><linearGradient id="SVGID_4_" gradientUnits="userSpaceOnUse" x1="490.734" y1="94.177" x2="659.104" y2="94.177" gradientTransform="rotate(180 223.515 114)"><stop offset="0" stop-color="#f7b777"/><stop offset="1" stop-color="#f47960"/></linearGradient><path d="M-212.1 41.6c8.6-10.3 19.4-5.5 19.4-5.5 12.8 54.1 80 98 149 119.4-4.5 19.2-14.9 51.6-36.9 77.1-114.5-64.3-131.5-191-131.5-191z" fill="url(#SVGID_4_)"/><linearGradient id="SVGID_5_" gradientUnits="userSpaceOnUse" x1="299.656" y1="64.893" x2="370.204" y2="64.893" gradientTransform="rotate(180 223.515 114)"><stop offset="0" stop-color="#f7b777"/><stop offset="1" stop-color="#f47960"/></linearGradient><path d="M124.1 132.1l23.2 54.7c.4.9-.1 2-1.1 2.4-6.3 2.9-29.1 11.1-56.6-3.1-2.7-1.2-4.6-3.7-5.2-6.6l-7.5-47.3h47.2z" fill="url(#SVGID_5_)"/><linearGradient id="SVGID_6_" gradientUnits="userSpaceOnUse" x1="-6126.848" y1="2412.537" x2="-6158.328" y2="2516.347" gradientTransform="rotate(-138.2 -3467.981 80.023)"><stop offset="0" stop-color="#f7b777"/><stop offset="1" stop-color="#f47960"/></linearGradient><path d="M72.9 57.9s-30.4 57.2-26.5 80.4 41.6 21.5 74.5 2.7l23-61.8-71-21.3z" fill="url(#SVGID_6_)"/><linearGradient id="SVGID_7_" gradientUnits="userSpaceOnUse" x1="76.198" y1="266.175" x2="110.688" y2="69.425" gradientTransform="matrix(1 0 0 -1 0 228)"><stop offset="0" stop-color="#fff11e"/><stop offset="1" stop-color="#643a12"/></linearGradient><path d="M158.4 53.1c-7.9-17.3-81.1-7.7-73-25 6.9-14.8-32.7 8.6-26.8 24.6 6.1 16.5 35 23.7 54.4 28.3s13.9 8.1 13.9 8.1c-1.5 6.7-6 14.2-8.5 18-.7 1.1-.4 2.6.7 3.3.1.1.2.1.3.2l4.3 1.9c1.1.5 1.7 1.8 1.3 2.9l-3.6 10.6c-2.1.1-3 1-8.2.4 0 0-13.8 21.6-43.8 17.6 0 0-11 0-8-8 0 0-1-4-6-4l-2 5s-5.8 2.2-6.9-9.4l.6-3.8s-5.7 2.2-5.7 6.2-3 16 5 20 6 10 26 8 35-5 42-11c1.2-1.1 2.3-2.3 3.2-3.7.4.2.9.3 1.3.2 19.9-2.3 48.5-26.3 42.4-26-9.9.6 3.6-50.1-2.9-64.4z" fill="url(#SVGID_7_)"/><linearGradient id="SVGID_8_" gradientUnits="userSpaceOnUse" x1="-6158.855" y1="2413.068" x2="-6187.175" y2="2506.478" gradientTransform="rotate(-138.2 -3467.981 80.023)"><stop offset="0" stop-color="#f7b777"/><stop offset="1" stop-color="#f47960"/></linearGradient><path d="M116 114.2s21.6-14.9 23.2-2.3-19.5 18.1-29.9 13.5l6.7-11.2z" fill="url(#SVGID_8_)"/><path class="st7" d="M82 97.2l1.5-7.9 20.2 11.8zm-26.2 21.6l21.6 3.9c3 .5-7.8 14.9-17.9 9 0 0-5.7-2.1-3.7-12.9z"/><defs><path id="SVGID_9_" d="M82 97.2l1.5-7.9 20.2 11.8z"/></defs><clipPath id="SVGID_10_"><use xlink:href="#SVGID_9_" overflow="visible"/></clipPath><g clip-path="url(#SVGID_10_)"><linearGradient id="SVGID_11_" gradientUnits="userSpaceOnUse" x1="77.466" y1="133.043" x2="90.466" y2="133.043" gradientTransform="matrix(1 0 0 -1 0 228)"><stop offset="0" stop-color="#2f508a"/><stop offset="1" stop-color="#4e929f"/></linearGradient><circle cx="84" cy="95" r="6.5" fill="url(#SVGID_11_)"/></g><path class="st7" d="M51.5 91.6l1.5-7.8 11.3 10.1z"/><defs><path id="SVGID_12_" d="M51.5 91.6l1.5-7.8 11.3 10.1z"/></defs><clipPath id="SVGID_13_"><use xlink:href="#SVGID_12_" overflow="visible"/></clipPath><g clip-path="url(#SVGID_13_)"><linearGradient id="SVGID_14_" gradientUnits="userSpaceOnUse" x1="47.866" y1="137.983" x2="59.866" y2="137.983" gradientTransform="matrix(1 0 0 -1 0 228)"><stop offset="0" stop-color="#2f508a"/><stop offset="1" stop-color="#4e929f"/></linearGradient><circle cx="53.9" cy="90" r="6" fill="url(#SVGID_14_)"/></g><linearGradient id="SVGID_15_" gradientUnits="userSpaceOnUse" x1="249.326" y1="129.926" x2="265.332" y2="129.926" gradientTransform="scale(1 -1) rotate(-10.259 -1174.933 1072.848)"><stop offset=".62" stop-color="#f47b61"/><stop offset="1" stop-color="#f47960"/></linearGradient><path fill="url(#SVGID_15_)" d="M60.8 110.6l-1.7-4.4 6 1.1 8.8 6.7z"/></g></svg>