<svg xmlns="http://www.w3.org/2000/svg" xmlns:xlink="http://www.w3.org/1999/xlink" viewBox="0 0 225.7 225.7"><style>.st7{fill:#fff}.st9{fill:#332323}</style><defs><path id="SVGID_1_" d="M0 0h225.7v225.7H0z"/></defs><clipPath id="SVGID_2_"><use xlink:href="#SVGID_1_" overflow="visible"/></clipPath><g clip-path="url(#SVGID_2_)"><linearGradient id="SVGID_3_" gradientUnits="userSpaceOnUse" x1="162.241" y1="-212.801" x2="680.741" y2="160.349" gradientTransform="rotate(180 223.515 114)"><stop offset="0" stop-color="#a0b4bf"/><stop offset="1" stop-color="#f8bccb"/></linearGradient><path d="M44.5 169.2c87-1.4 183.1 22.9 183.1 22.9 26 151.4 4.5 326 4.5 326-67.4 17.7-143.4-10.8-143.4-10.8C77.6 444 25.3 265.9 25.3 265.9c-42.5-5.3-77.6-17.5-106.4-33.8 22-25.5 32.4-58 36.9-77.2 30.8 9.7 61.9 14.8 88.7 14.3z" fill="url(#SVGID_3_)"/><linearGradient id="SVGID_4_" gradientUnits="userSpaceOnUse" x1="491.224" y1="94.708" x2="659.595" y2="94.708" gradientTransform="rotate(180 223.515 114)"><stop offset="0" stop-color="#f7b777"/><stop offset="1" stop-color="#f47960"/></linearGradient><path d="M-212.6 41c8.6-10.3 19.4-5.5 19.4-5.5 12.8 54.1 80 98 149 119.4-4.5 19.2-14.9 51.6-36.9 77.1-114.5-64.2-131.5-191-131.5-191z" fill="url(#SVGID_4_)"/><linearGradient id="SVGID_5_" gradientUnits="userSpaceOnUse" x1="300.146" y1="65.424" x2="370.695" y2="65.424" gradientTransform="rotate(180 223.515 114)"><stop offset="0" stop-color="#f7b777"/><stop offset="1" stop-color="#f47960"/></linearGradient><path d="M123.6 131.6l23.2 54.7c.4.9-.1 2-1.1 2.4-6.3 2.9-29.1 11.1-56.6-3.1-2.7-1.2-4.6-3.7-5.2-6.6l-7.5-47.3h47.2z" fill="url(#SVGID_5_)"/><linearGradient id="SVGID_6_" gradientUnits="userSpaceOnUse" x1="-5947.195" y1="2343.774" x2="-5978.675" y2="2447.584" gradientTransform="rotate(-138.2 -3365.512 80.006)"><stop offset="0" stop-color="#f7b777"/><stop offset="1" stop-color="#f47960"/></linearGradient><path d="M72.4 57.4S42 114.7 45.9 137.8s41.6 21.5 74.5 2.7l23-61.8-71-21.3z" fill="url(#SVGID_6_)"/><linearGradient id="SVGID_7_" gradientUnits="userSpaceOnUse" x1="75.707" y1="266.707" x2="110.197" y2="69.957" gradientTransform="matrix(1 0 0 -1 0 228)"><stop offset="0" stop-color="#643a12"/><stop offset="1" stop-color="#ed442d"/></linearGradient><path d="M157.9 52.6c-7.9-17.3-81.1-7.7-73-25 6.9-14.8-32.7 8.5-26.8 24.6 6.1 16.5 35 23.7 54.4 28.3s13.9 8.1 13.9 8.1c-1.5 6.7-6 14.2-8.5 18-.7 1.1-.4 2.6.7 3.3.1.1.2.1.3.2l4.3 1.9c1.1.5 1.7 1.8 1.3 2.9l-3.6 10.6c-2.1.1-3 1-8.2.4 0 0-13.8 21.6-43.8 17.6 0 0-11 0-8-8 0 0-1-4-6-4l-2 5s-5.8 2.2-6.9-9.4l.6-3.8s-5.7 2.2-5.7 6.2-3 16 5 20 6 10 26 8 35-5 42-11c1.2-1.1 2.3-2.3 3.2-3.7.4.2.9.3 1.3.2 19.9-2.3 48.5-26.3 42.4-26-9.9.6 3.6-50.2-2.9-64.4z" fill="url(#SVGID_7_)"/><linearGradient id="SVGID_8_" gradientUnits="userSpaceOnUse" x1="-5979.203" y1="2344.305" x2="-6007.523" y2="2437.715" gradientTransform="rotate(-138.2 -3365.512 80.006)"><stop offset="0" stop-color="#f7b777"/><stop offset="1" stop-color="#f47960"/></linearGradient><path d="M115.5 113.7s21.6-14.9 23.2-2.3-19.5 18.1-29.9 13.5l6.7-11.2z" fill="url(#SVGID_8_)"/><path class="st7" d="M81.6 96.6l1.4-7.9 20.2 11.8zm-26.3 21.7l21.6 3.9c3 .5-7.8 14.8-17.9 9 0 0-5.7-2.1-3.7-12.9z"/><defs><path id="SVGID_9_" d="M81.6 96.6l1.4-7.9 20.2 11.8z"/></defs><clipPath id="SVGID_10_"><use xlink:href="#SVGID_9_" overflow="visible"/></clipPath><g clip-path="url(#SVGID_10_)"><circle class="st9" cx="83.5" cy="94.4" r="6.5"/></g><path class="st7" d="M51.1 91.1l1.4-7.9 11.3 10.2z"/><defs><path id="SVGID_11_" d="M51.1 91.1l1.4-7.9 11.3 10.2z"/></defs><clipPath id="SVGID_12_"><use xlink:href="#SVGID_11_" overflow="visible"/></clipPath><g clip-path="url(#SVGID_12_)"><circle class="st9" cx="53.4" cy="89.5" r="6"/></g><linearGradient id="SVGID_13_" gradientUnits="userSpaceOnUse" x1="200.659" y1="126.038" x2="216.666" y2="126.038" gradientTransform="scale(1 -1) rotate(-10.259 -1174.894 802.836)"><stop offset=".62" stop-color="#f47b61"/><stop offset="1" stop-color="#f47960"/></linearGradient><path fill="url(#SVGID_13_)" d="M60.3 110l-1.7-4.3 6 1.1 8.8 6.6z"/></g></svg>