<svg version="1.1" xmlns="http://www.w3.org/2000/svg" xmlns:xlink="http://www.w3.org/1999/xlink" x="0" y="0" viewBox="0 0 225.7 225.7" xml:space="preserve"><style>.st2{fill:#fff}.st4{fill:#332323}</style><defs><path id="SVGID_1_" d="M0 0h225.7v225.7H0z"/></defs><clipPath id="SVGID_2_"><use xlink:href="#SVGID_1_" overflow="visible"/></clipPath><g clip-path="url(#SVGID_2_)"><linearGradient id="SVGID_3_" gradientUnits="userSpaceOnUse" x1="147.29" y1="1.565" x2="77.277" y2="232.476" gradientTransform="matrix(1 0 0 -1 0 228)"><stop offset="0" stop-color="#f7b777"/><stop offset="1" stop-color="#f47960"/></linearGradient><path d="M67.8 86.8s-4-43 2-51 15-18 20-19 13 7 16 24-6 33-6 33c8.5-10.3 19.5-18.3 32-23 21-8 33-11 39-22 0 0 3 0 0 5s-25 28-30 38-16 15-16 15-6 4-5 9 12 16 27 55c0 0 34.1 17.1 48.6 19.1 8.5 1.1 79.4 49.7 54.5 66.2-17.6 11.7-124.7-5.6-152.1-10.2 0 0-8-20-4-31l-15-27s-4-3-15 1-19 11-37 5c0 0-16-17-5-30s16-35.1 46-57.1z" fill="url(#SVGID_3_)"/><path class="st2" d="M67.4 123.9l1.5-7.9 20.2 11.8z"/><defs><path id="SVGID_4_" d="M67.4 123.9l1.5-7.9 20.2 11.8z"/></defs><clipPath id="SVGID_5_"><use xlink:href="#SVGID_4_" overflow="visible"/></clipPath><g clip-path="url(#SVGID_5_)"><circle class="st4" cx="70.8" cy="123.1" r="8"/></g><path class="st2" d="M37 118.3l1.4-7.8 11.3 10.1z"/><defs><path id="SVGID_6_" d="M37 118.3l1.4-7.8 11.3 10.1z"/></defs><clipPath id="SVGID_7_"><use xlink:href="#SVGID_6_" overflow="visible"/></clipPath><g clip-path="url(#SVGID_7_)"><circle class="st4" cx="39.3" cy="116.7" r="6"/></g><path class="st4" d="M17.8 152.9s2 3.9 5 4.9 14-3 16-7c0 0 3 10-12 11 0 0-4 2-2 6 0 0-6.9-6.8-7-14.9z"/><linearGradient id="SVGID_8_" gradientUnits="userSpaceOnUse" x1="74.115" y1="52.608" x2="80.145" y2="73.018" gradientTransform="matrix(1 0 0 -1 0 228)"><stop offset="0" stop-color="#f7b777"/><stop offset="1" stop-color="#f47960"/></linearGradient><path d="M62.8 168.8s0-5 8-8 20 0 22-8c0 0 4.2 11.1-16.4 13.6l-13.6 2.4z" fill="url(#SVGID_8_)"/><linearGradient id="SVGID_9_" gradientUnits="userSpaceOnUse" x1="151.188" y1="146.548" x2="140.498" y2="158.458" gradientTransform="matrix(1 0 0 -1 0 228)"><stop offset="0" stop-color="#f7b777"/><stop offset="0" stop-color="#f47960"/></linearGradient><path d="M105.8 91.8c3.3.5 6.6-.6 9-3 7-7.1 14.3-13.7 22-20 11-9 25.9-27.9 29.9-30.9 0 0-19.2 24-25.1 32.5s-9.1 13.2-18.5 17.4-12.3 8-17.3 4z" fill="url(#SVGID_9_)"/><linearGradient id="SVGID_10_" gradientUnits="userSpaceOnUse" x1="89.814" y1="128.733" x2="69.054" y2="151.843" gradientTransform="matrix(1 0 0 -1 0 228)"><stop offset="0" stop-color="#f7b777"/><stop offset="0" stop-color="#f47960"/></linearGradient><path d="M67.8 86.8l6-5s-6.7-12.1-7.3-20.6c0 0-.7 15.6 1.3 25.6z" fill="url(#SVGID_10_)"/><linearGradient id="SVGID_11_" gradientUnits="userSpaceOnUse" x1="106.655" y1="110.964" x2="92.865" y2="126.314" gradientTransform="matrix(1 0 0 -1 0 228)"><stop offset="0" stop-color="#f7b777"/><stop offset="0" stop-color="#f47960"/></linearGradient><path d="M82.8 100.8s5-8 9-8 12 10 6 10-14 0-15-2z" fill="url(#SVGID_11_)"/><linearGradient id="SVGID_12_" gradientUnits="userSpaceOnUse" x1="33.592" y1="61.808" x2="45.152" y2="69.978" gradientTransform="matrix(1 0 0 -1 0 228)"><stop offset="0" stop-color="#f7b777"/><stop offset=".76" stop-color="#f47960"/></linearGradient><path d="M43.8 158.8s-2 3-9 4c2.2 1.2 4.8 1.2 7 0 4-2 2-4 2-4z" fill="url(#SVGID_12_)"/><linearGradient id="SVGID_13_" gradientUnits="userSpaceOnUse" x1="38.15" y1="57.689" x2="45.29" y2="62.739" gradientTransform="matrix(1 0 0 -1 0 228)"><stop offset="0" stop-color="#f7b777"/><stop offset=".76" stop-color="#f47960"/></linearGradient><path d="M39.8 167.8s4-2 4-3c0 0 2 3-2 4s-2-1-2-1z" fill="url(#SVGID_13_)"/></g></svg>